PathFileType	4	(X/Y/Z)	C:\Users\Basilio\Documents\Thesis Gigler\squatting_fais\c3dfiles\058\SLS_front_pre1\markers_experimental.trc
DataRate	CameraRate	NumFrames	NumMarkers	Units	OrigDataRate	OrigDataStartFrame	OrigNumFrames
200.000000	200.000000	4	61	mm	200.000000	451	1204
Frame#	Time	FHD			LBHD			RBHD			C7			T10			CLAV			LSHO			LUUPA			LMUPA			LDUPA			LLEP			LMEP			LUL			LRFIN			RSHO			RUPA1			RMUPA			RDUPA			RLEP			RMEP			RRAD			RUL			RUFIN			LASI			RASI			USACR			LSACR			RSACR			LTHI1			LTHI2			LTHI3			LTHI4			LLFC			LMFC			LTIB1			LTIB2			LTIB3			LTIB4			LLMAL			LMMAL			LHEE			LMT1			LMT2			LMT5			RTHI			RTHI2			RTHI3			RTHI4			RLFC			RMFC			RTIB1			RTIB2			RTIB3			RTIB4			RLMAL			RMMAL			RHEE			RMT1			RMT2			RMT5			LRAD			
		X1	Y1	Z1	X2	Y2	Z2	X3	Y3	Z3	X4	Y4	Z4	X5	Y5	Z5	X6	Y6	Z6	X7	Y7	Z7	X8	Y8	Z8	X9	Y9	Z9	X10	Y10	Z10	X11	Y11	Z11	X12	Y12	Z12	X13	Y13	Z13	X14	Y14	Z14	X15	Y15	Z15	X16	Y16	Z16	X17	Y17	Z17	X18	Y18	Z18	X19	Y19	Z19	X20	Y20	Z20	X21	Y21	Z21	X22	Y22	Z22	X23	Y23	Z23	X24	Y24	Z24	X25	Y25	Z25	X26	Y26	Z26	X27	Y27	Z27	X28	Y28	Z28	X29	Y29	Z29	X30	Y30	Z30	X31	Y31	Z31	X32	Y32	Z32	X33	Y33	Z33	X34	Y34	Z34	X35	Y35	Z35	X36	Y36	Z36	X37	Y37	Z37	X38	Y38	Z38	X39	Y39	Z39	X40	Y40	Z40	X41	Y41	Z41	X42	Y42	Z42	X43	Y43	Z43	X44	Y44	Z44	X45	Y45	Z45	X46	Y46	Z46	X47	Y47	Z47	X48	Y48	Z48	X49	Y49	Z49	X50	Y50	Z50	X51	Y51	Z51	X52	Y52	Z52	X53	Y53	Z53	X54	Y54	Z54	X55	Y55	Z55	X56	Y56	Z56	X57	Y57	Z57	X58	Y58	Z58	X59	Y59	Z59	X60	Y60	Z60	X61	Y61	Z61	

452	2.255	-293.8744506835938	1672.86962890625	-603.7750854492189	-449.3281250000001	1622.5234375	-678.7768554687501	-280.3080444335938	1679.890991210938	-745.3025512695314	-465.9300537109376	1471.253662109375	-690.3283691406251	-513.8919677734376	1173.0576171875	-691.3684082031251	-306.6411132812501	1418.5830078125	-674.3623657226564	-319.5771484375001	1467.580810546875	-831.4507446289065	-181.8008422851563	1383.947387695313	-954.4758300781252	-152.3131561279297	1420.842529296875	-936.3504638671877	-111.9568023681641	1381.991333007813	-957.736022949219	-35.37598419189454	1382.843505859375	-950.6668090820315	-30.20412063598634	1327.323364257813	-917.0961914062502	236.1336669921876	1414.432006835938	-927.811218261719	333.7056579589844	1415.714477539063	-850.1915283203127	-334.4064636230469	1470.498779296875	-520.3604736328126	-186.7441101074219	1374.2109375	-407.1903686523439	-160.9497985839844	1411.169189453125	-430.0476379394532	-117.2472229003907	1379.076782226563	-406.1691894531251	-49.9987258911133	1366.766479492188	-410.9206848144532	-43.93405914306641	1306.87646484375	-459.407684326172	220.6728820800782	1384.861938476563	-499.3455200195314	221.3565673828126	1399.135009765625	-418.2455444335939	314.0578613281251	1406.00439453125	-487.1034545898439	-360.0667114257813	989.0371704101565	-852.8438720703127	-335.5174865722657	964.032165527344	-618.4946289062501	-539.6703491210939	1042.182983398438	-702.8952026367189	-549.1560668945314	1013.588684082031	-732.7056274414064	-539.0521850585939	1007.999572753906	-676.2702636718751	-267.5156555175782	769.744079589844	-940.257263183594	-196.392562866211	724.0311279296876	-934.8181152343752	-162.2986297607422	746.0493164062501	-904.1522216796877	-187.3772583007813	664.3063964843751	-933.684509277344	-124.5076370239258	586.0272827148439	-928.0621337890627	-108.4064483642578	577.9176025390626	-800.6749267578127	2.406590700149537	510.5021362304689	-895.1849365234377	-13.42266654968262	455.993377685547	-958.6008300781252	21.43815803527832	469.8272399902345	-932.958679199219	72.53506469726564	405.183563232422	-913.801940917969	147.1623687744141	214.1474609375001	-946.8900146484377	159.5695190429688	234.1270446777344	-856.6411743164065	123.6956100463867	143.0131072998047	-898.8024902343752	303.5372924804688	271.4319763183594	-877.0659790039065	306.0466613769532	280.5715942382813	-922.6983032226565	281.4518737792969	236.1061553955079	-977.6560668945315	-344.8685302734376	747.4916992187501	-556.8773193359376	-284.7635192871094	718.2751464843751	-559.2887573242189	-256.3655395507813	733.6868286132814	-562.4041137695314	-271.4872131347657	637.6387939453126	-581.5263671875001	-193.9344787597657	493.5283203125001	-612.1265869140626	-166.0375366210938	500.9013061523439	-743.9915161132814	-209.7017059326172	313.4644775390626	-719.3862304687501	-272.9677124023438	247.6672363281251	-655.9443359375001	-245.6087036132813	233.9361572265626	-692.9728393554689	-272.5988769531251	200.7938537597657	-731.0654907226564	-364.7263488769532	114.1095504760742	-691.9407958984376	-332.7040710449219	138.9493408203125	-777.5339355468752	-436.8058471679689	102.2334747314453	-756.6876831054689	-228.8240814208985	61.49338912963869	-767.8291625976564	-221.8005065917969	59.96493148803712	-715.8187255859376	-271.4891662597657	26.67734527587891	-664.8873291015626	nan	nan	nan	
453	2.26	-293.4305419921876	1671.984008789063	-603.8228149414064	-449.1776428222657	1621.309814453125	-678.7893676757814	-279.9871826171876	1678.779174804688	-745.2938232421876	-465.7012939453126	1470.333374023438	-690.4015502929689	-513.9328613281251	1172.184448242188	-691.5350341796876	-306.4518127441407	1417.598999023438	-674.4660644531251	-319.3291015625001	1466.3701171875	-831.592468261719	-181.3846130371094	1382.47900390625	-954.6654052734377	-152.1945190429688	1419.69873046875	-936.5073242187502	-111.6419372558594	1380.9208984375	-957.837341308594	-35.15134048461915	1381.820190429688	-950.7514648437502	-29.77944564819337	1325.944946289063	-917.144958496094	236.3780670166016	1413.527221679688	-927.9179687500002	333.8609008789063	1414.813598632813	-850.4531250000002	-334.3014526367188	1469.303955078125	-520.5018310546876	-186.4252319335938	1373.29345703125	-407.4119567871095	-160.7233123779297	1409.818481445313	-430.1253662109376	-116.9776992797852	1377.851318359375	-406.3812255859376	-49.68345260620119	1365.653686523438	-411.0003662109376	-43.46402740478516	1306.024047851563	-459.6987609863282	220.9634552001954	1383.790771484375	-499.4553222656251	221.5901489257813	1397.823974609375	-418.4626464843751	314.0442810058594	1404.338745117188	-487.7846679687501	-360.1863403320313	987.9011840820315	-852.788757324219	-336.1080932617188	963.2188110351565	-618.3737792968751	-539.6417236328126	1041.124389648438	-703.0402832031251	-549.5006103515626	1012.704406738281	-732.7699584960939	-539.4086303710939	1006.927185058594	-676.3230590820314	-267.3786010742188	768.8829345703127	-940.3677978515627	-196.4807586669922	723.1984252929689	-934.7749023437502	-162.6557922363282	745.3478393554689	-904.3457641601565	-187.2033081054688	663.4865722656251	-933.6771240234377	-124.3144836425782	585.4783935546876	-927.883483886719	-107.8852462768555	577.4387207031251	-800.5208129882815	2.777475595474244	510.2203063964845	-895.1536865234377	-13.32793712615967	455.5507202148439	-958.3480224609377	21.60944938659668	469.451385498047	-932.797546386719	72.7323455810547	404.890594482422	-913.6265869140627	148.0874938964844	213.7576904296876	-946.6137695312502	160.3416137695313	233.687484741211	-856.3836669921877	124.6026306152344	142.8247375488282	-898.6272583007815	303.9704895019532	271.4871520996094	-876.7645263671877	306.5893554687501	280.6867370605469	-922.3462524414065	282.1874694824219	236.0680389404297	-977.2549438476565	-344.7720947265626	747.0038452148439	-556.7756347656251	-284.5444030761719	717.5814208984376	-559.3457031250001	-255.9596862792969	733.1666870117189	-562.5879516601564	-271.1981506347657	637.3392944335939	-581.3529663085939	-193.3160552978516	493.2599182128907	-612.2516479492189	-165.4491271972657	500.5839843750001	-744.0215454101564	-209.116928100586	313.1946105957032	-719.3587646484376	-272.6871337890626	247.5427856445313	-655.9162597656251	-244.3043365478516	233.5439605712891	-692.2166137695314	-272.1495056152344	200.5195922851563	-730.9742431640626	-364.7630920410157	114.086669921875	-691.8767700195314	-332.6443176269532	138.9244537353516	-777.5261230468752	-436.819549560547	102.2288818359375	-756.6649780273439	-228.7109375000001	61.63332748413087	-767.7757568359376	-221.7845458984376	59.93889236450197	-715.8021240234376	-271.4379882812501	26.69090843200684	-664.9078979492189	nan	nan	nan	
454	2.265	-293.0728149414063	1671.145751953125	-604.0109252929689	-449.0809631347657	1620.046875	-678.8493652343751	-279.9420471191407	1677.671264648438	-745.5292358398439	-465.3906250000001	1469.269653320313	-690.4874267578126	-514.0863037109376	1171.07421875	-691.4799804687501	-306.1388549804688	1416.419677734375	-674.5430908203126	-319.1523132324219	1465.455322265625	-831.564147949219	-181.1621856689453	1381.568969726563	-954.9177246093752	-151.7539367675782	1418.532592773438	-936.6075439453127	-111.2565536499024	1379.749877929688	-957.9908447265627	-34.84264373779298	1380.757080078125	-950.9025878906252	-29.1620101928711	1325.117553710938	-917.5068969726565	236.5391998291016	1412.5517578125	-928.1358032226565	334.5996093750001	1413.77294921875	-850.236022949219	-334.1146850585938	1468.41357421875	-520.5397949218751	-186.243637084961	1372.102416992188	-407.4583435058595	-159.9464111328125	1409.095825195313	-430.3911743164064	-116.6728591918946	1376.99951171875	-406.4020385742189	-49.37845993041994	1364.7353515625	-411.1451721191407	-43.16037750244141	1304.906982421875	-459.8372192382814	221.5594940185547	1382.825805664063	-499.527313232422	222.0677337646485	1396.864501953125	-418.5532836914064	314.0673522949219	1403.459106445313	-488.2413330078126	-360.5450439453126	986.8360595703127	-852.9571533203127	-336.6721801757813	962.1875610351565	-618.3007202148439	-540.0305786132814	1040.229370117188	-703.1107177734376	-550.0546875000001	1011.592407226563	-732.7760009765626	-539.8728027343751	1006.009826660156	-676.4589233398439	-267.7494201660157	767.7915649414064	-940.3294677734377	-196.5401611328126	722.4492187500001	-934.8015747070315	-162.847885131836	744.6682739257814	-904.0823364257815	-187.272933959961	662.8778686523439	-933.5814208984377	-124.3284072875977	584.7572631835939	-927.7590332031252	-107.8204956054688	577.1242675781251	-800.338806152344	3.365479707717896	509.9721069335939	-895.1994628906252	-13.15588569641114	455.1613769531251	-958.0886840820315	21.61528968811036	468.6136779785157	-932.4678955078127	73.57437133789064	404.6671142578126	-913.4617309570315	148.4666595458985	213.5104217529297	-946.246520996094	160.9431762695313	233.5147094726563	-856.1524658203127	125.0460052490235	142.7451782226563	-898.2095336914065	305.1546020507813	272.0483093261719	-876.675720214844	307.6342163085938	281.0598449707032	-922.1834106445315	282.7773132324219	235.9908294677735	-976.9675292968752	-344.7469177246094	746.3332519531251	-556.6208496093751	-284.2391052246094	717.1159667968751	-559.3916015625001	-255.9968872070313	732.4410400390626	-562.5697631835939	-270.9663696289063	636.6707153320314	-581.2254028320314	-192.6744384765626	493.1001586914064	-612.2950439453126	-164.8070526123047	500.2174377441407	-744.1257324218751	-208.7796936035157	312.9137268066407	-719.4022216796876	-272.5439453125001	247.473373413086	-655.8197631835939	-244.8971862792969	233.8399200439454	-692.7985839843751	-271.9973754882813	200.3447418212891	-730.9461059570314	-364.7138061523438	114.1281204223633	-691.7872314453126	-332.5743713378907	138.9573516845703	-777.4424438476565	-436.8554687500001	102.2668075561524	-756.5709228515626	-228.6967926025391	61.77788162231447	-767.6935424804689	-221.7439727783204	59.9686737060547	-715.7700195312501	-271.3744201660157	26.68428421020509	-664.9067993164064	nan	nan	nan	
455	2.27	-292.9987487792969	1669.733032226563	-604.1228027343751	-448.7719116210939	1618.869506835938	-678.8819580078126	-279.7229309082032	1676.625366210938	-745.5901489257814	-465.1529846191407	1468.274658203125	-690.4474487304689	-514.1896362304689	1170.369873046875	-691.6022338867189	-305.9588928222657	1415.220947265625	-674.6123046875001	-318.8670959472657	1464.220336914063	-831.5058593750002	-180.8563385009766	1380.375	-955.0808715820315	-151.3408203125	1417.576538085938	-936.7456054687502	-111.1786651611328	1378.742553710938	-958.0722656250002	-34.03116989135743	1379.729370117188	-951.9219360351565	-28.63362693786622	1324.11669921875	-918.1114501953127	236.9600067138672	1411.5712890625	-928.4147949218752	334.5805664062501	1412.989868164063	-850.503112792969	-333.5950622558594	1467.246337890625	-520.6725463867189	-185.9232635498047	1371.132080078125	-407.5545654296876	-159.552963256836	1408.056030273438	-430.5690002441407	-116.3804092407227	1375.937866210938	-406.5311279296876	-49.23571395874025	1363.48828125	-411.2430114746095	-42.89912796020509	1303.921875	-460.111541748047	221.8396911621094	1381.80224609375	-499.7194213867189	222.2605895996094	1395.835083007813	-418.4280395507814	315.0551452636719	1402.580322265625	-487.4402465820314	-360.8087158203126	985.812683105469	-852.965270996094	-336.9037475585938	961.262634277344	-618.4039916992189	-540.1856689453126	1039.28466796875	-703.2582397460939	-550.2779541015626	1010.820129394531	-732.9437866210939	-540.2025756835939	1004.828552246094	-676.5376586914064	-268.0039367675782	766.9477539062501	-940.363220214844	-196.7052001953126	721.7522583007814	-934.772155761719	-162.9132690429688	744.1233520507814	-904.135192871094	-187.3177490234375	662.1646118164064	-933.4016113281252	-124.1323394775391	584.0451049804689	-927.6213378906252	-107.6419143676758	576.7953491210939	-800.2798461914065	3.60572910308838	509.6108398437501	-895.054138183594	-12.75879096984864	454.5856933593751	-957.8516845703127	21.80487060546875	468.2658996582032	-932.3066406250002	73.63088226318361	404.3087158203126	-913.2568359375002	149.3019561767578	213.208480834961	-945.943054199219	161.8274536132813	233.4970703125001	-855.7691040039065	126.0934677124024	142.5587463378907	-897.804870605469	305.8720092773438	272.0939331054688	-876.3109130859377	308.2090148925782	280.7821350097657	-921.8330078125002	283.4890441894532	235.6294555664063	-976.5269775390627	-344.6094970703126	745.4396972656251	-556.5146484375001	-284.1230468750001	716.4110717773439	-559.3710327148439	-255.8045349121094	732.0652465820314	-562.6949462890626	-270.7020874023438	636.0066528320314	-581.2371215820314	-191.7909851074219	492.6265258789064	-612.3499755859376	-164.2018737792969	499.7925109863282	-744.3496093750001	-208.442611694336	312.6049194335938	-719.4521484375001	-272.3680419921876	247.4376068115235	-655.8021240234376	-244.1508026123047	233.4438171386719	-692.1099853515626	-271.8279418945313	200.2447357177735	-730.8831787109376	-364.6410217285157	114.1569290161133	-691.7219848632814	-332.4312438964844	138.9522399902344	-777.3776855468752	-436.8529357910157	102.2964782714844	-756.5476074218751	-228.6915740966797	61.58554077148439	-767.7545166015626	-221.7328796386719	59.97200775146486	-715.7748413085939	-271.3792419433594	26.66300010681153	-664.9044799804689	nan	nan	nan	
